<svg height="512pt" viewBox="0 0 512 512" width="512pt" xmlns="http://www.w3.org/2000/svg"><path d="m75 90h242v92h-242zm0 0"/><path d="m75 272h92v90h-92zm0 0"/><path d="m407.382812 512c-9.519531-12.574219-15.382812-28.050781-15.382812-45v-452c0-8.289062-6.710938-15-15-15h-362c-8.289062 0-15 6.710938-15 15v422c0 41.351562 33.648438 75 75 75zm-75.382812-180h-90c-8.289062 0-15-6.710938-15-15s6.710938-15 15-15h90c8.289062 0 15 6.710938 15 15s-6.710938 15-15 15zm15 45c0 8.289062-6.710938 15-15 15h-90c-8.289062 0-15-6.710938-15-15s6.710938-15 15-15h90c8.289062 0 15 6.710938 15 15zm-15-105h-90c-8.289062 0-15-6.710938-15-15s6.710938-15 15-15h90c8.289062 0 15 6.710938 15 15s-6.710938 15-15 15zm-287-197c0-8.289062 6.710938-15 15-15h272c8.289062 0 15 6.710938 15 15v122c0 8.289062-6.710938 15-15 15h-272c-8.289062 0-15-6.710938-15-15zm0 182c0-8.289062 6.710938-15 15-15h122c8.289062 0 15 6.710938 15 15v120c0 8.289062-6.710938 15-15 15h-122c-8.289062 0-15-6.710938-15-15zm0 180c0-8.289062 6.710938-15 15-15h272c8.289062 0 15 6.710938 15 15s-6.710938 15-15 15h-272c-8.289062 0-15-6.710938-15-15zm0 0"/><path d="m497 302h-75v165c0 24.851562 20.148438 45 45 45s45-20.148438 45-45v-150c0-8.285156-6.714844-15-15-15zm0 0"/></svg>